<svg width="200" height="200" viewBox="0 0 200 200" fill="none" xmlns="http://www.w3.org/2000/svg">
    <circle cx="100" cy="100" r="100" fill="rgb(245, 149, 99)"/>
    <path d="M146.352 66.7692H128.25L123.937 54.7956C123.64 53.9763 123.094 53.2681 122.374 52.7677C121.655 52.2673 120.797 51.9992 119.918 52H79.0822C77.2853 52 75.6748 53.1209 75.0758 54.7956L70.75 66.7692H52.6481C46.765 66.7692 42 71.4901 42 77.3187V137.451C42 143.279 46.765 148 52.6481 148H146.352C152.235 148 157 143.279 157 137.451V77.3187C157 71.4901 152.235 66.7692 146.352 66.7692ZM99.5 126.901C87.7338 126.901 78.2037 117.459 78.2037 105.802C78.2037 94.1451 87.7338 84.7033 99.5 84.7033C111.266 84.7033 120.796 94.1451 120.796 105.802C120.796 117.459 111.266 126.901 99.5 126.901ZM86.7222 105.802C86.7222 109.16 88.0684 112.38 90.4647 114.754C92.861 117.128 96.1111 118.462 99.5 118.462C102.889 118.462 106.139 117.128 108.535 114.754C110.932 112.38 112.278 109.16 112.278 105.802C112.278 102.445 110.932 99.2248 108.535 96.8507C106.139 94.4766 102.889 93.1429 99.5 93.1429C96.1111 93.1429 92.861 94.4766 90.4647 96.8507C88.0684 99.2248 86.7222 102.445 86.7222 105.802Z"
          fill="white"/>
</svg>
